<svg width="90" height="90" viewBox="0 0 90 90" fill="none" xmlns="http://www.w3.org/2000/svg">
<path d="M15.1187 35.5975L9.30183 30.0401L10.2085 28.1348L18.3206 28.8674L17.5666 30.4515L15.7319 30.2541L14.5321 32.7773L15.8727 34.0135L15.1187 35.5975ZM14.4055 30.1082L11.3598 29.7786L11.3346 29.8336L13.5604 31.884L14.4055 30.1082Z" fill="#2C8717"/>
<path d="M16.9407 18.5238L20.7939 21.6178C22.0913 22.6595 22.1386 24.3518 20.9117 25.8445C19.6804 27.3428 17.9997 27.6377 16.7007 26.5963L12.8475 23.5023L13.8916 22.2324L17.6375 25.2403C18.315 25.7853 19.2031 25.6941 19.8086 24.958C20.4153 24.2184 20.3214 23.3447 19.6441 22.8014L15.8982 19.7935L16.9424 18.5236L16.9407 18.5238Z" fill="#2C8717"/>
<path d="M18.9065 16.6237L23.982 12.7393L24.7866 13.7902L22.8949 15.2385L26.7095 20.2174L25.4175 21.2055L21.6029 16.2265L19.7112 17.6747L18.9065 16.6237Z" fill="#2C8717"/>
<path d="M26.3557 11.3139L27.8584 10.6478L29.1018 13.5302L32.1515 12.1769L30.908 9.29445L32.4074 8.6288L35.4195 15.6146L33.9201 16.2803L32.6763 13.3946L29.6266 14.748L30.8705 17.6336L29.3678 18.2997L26.3557 11.3139Z" fill="#2C8717"/>
<path d="M35.3056 7.80604L40.4288 6.81389L40.6567 8.12457L37.1403 8.80565L37.4522 10.5969L40.705 9.96593L40.9328 11.2766L37.68 11.9075L37.9923 13.702L41.5232 13.0172L41.7511 14.3279L36.6133 15.3238L35.3054 7.80441L35.3056 7.80604Z" fill="#2C8717"/>
<path d="M49.3679 14.3822L47.9612 14.3354L44.8853 9.40224L44.8298 9.40006L44.5528 14.2207L42.9241 14.1652L43.3623 6.50591L44.7926 6.55436L47.8429 11.4828L47.9101 11.485L48.1858 6.66788L49.8077 6.72266L49.3695 14.382L49.3679 14.3822Z" fill="#2C8717"/>
<path d="M52.5029 7.14335L58.5651 8.83917L58.1724 10.1257L55.9128 9.49382L54.0546 15.5866L52.5117 15.1545L54.3699 9.06167L52.1102 8.42983L52.5029 7.14335Z" fill="#2C8717"/>
<path d="M58.7691 17.4894L57.3092 16.7987L60.7583 9.86664L62.2182 10.5574L58.7691 17.4894Z" fill="#2C8717"/>
<path d="M67.2176 16.9285C67.6264 16.1718 67.4203 15.3819 66.7062 14.8669C65.7503 14.1769 64.5742 14.4642 63.6105 15.7626C62.6207 17.0962 62.7339 18.2588 63.6716 18.9364C64.3675 19.4391 65.1715 19.4293 65.7908 18.852L67.1069 19.8115C66.1131 20.8572 64.368 21.2308 62.7858 20.0881C61.134 18.8955 60.7778 16.8436 62.2884 14.8089C63.8034 12.7687 65.9128 12.5033 67.5427 13.6807C68.9711 14.7123 69.4368 16.3196 68.5382 17.8841L67.218 16.9318L67.2176 16.9285Z" fill="#2C8717"/>
<path d="M67.3935 24.0725L66.2827 22.9102L71.9394 17.5654L73.0502 18.7277L67.3935 24.0725Z" fill="#2C8717"/>
<path d="M74.7159 20.4842L78.1929 25.6646L77.0679 26.4237L75.772 24.4934L70.4459 28.0864L69.561 26.7682L74.887 23.1753L73.5911 21.245L74.7161 20.4858L74.7159 20.4842Z" fill="#2C8717"/>
<path d="M79.874 29.3377L77.3363 32.1526L77.3613 32.2221L81.0839 32.6707L81.6991 34.3664L76.0524 33.5324L73.4829 34.5036L72.9375 33.0003L75.507 32.0291L79.2588 27.642L79.874 29.3377Z" fill="#2C8717"/>
<path d="M17.2945 61.385C16.701 60.3977 15.5091 60.1669 14.1176 60.9459C12.7179 61.728 12.3122 62.8178 12.9273 63.842C13.4726 64.7507 14.3271 65.0007 15.1699 64.5568L14.3354 63.1704L15.401 62.5742L17.0252 65.2764L16.1823 65.7476C14.4202 66.7317 12.6514 66.1659 11.6722 64.5375C10.5767 62.7153 11.1519 60.7519 13.2715 59.5691C15.4426 58.3559 17.5073 58.9569 18.533 60.6638C19.4107 62.1239 19.1547 63.7698 17.9362 64.685L17.1016 63.2986C17.6253 62.7746 17.7151 62.0886 17.2928 61.385H17.2945Z" fill="#2C8717"/>
<path d="M25.2823 68.7309L21.6931 72.1207C20.4846 73.2618 18.7789 73.14 17.4324 71.8146C16.0825 70.4843 15.9961 68.8431 17.2046 67.702L20.7938 64.3123L21.9375 65.439L18.4481 68.7341C17.8164 69.3304 17.7964 70.191 18.4597 70.8433C19.1264 71.4988 20.0158 71.4956 20.6475 70.8994L24.1369 67.6042L25.2806 68.7309H25.2823Z" fill="#2C8717"/>
<path d="M21.7946 75.5907L28.1051 70.5662L29.9039 71.6256L28.1484 79.3314L26.6522 78.4515L27.0811 76.711L24.6989 75.3086L23.2891 76.4722L21.793 75.5923L21.7946 75.5907ZM27.397 75.4528L28.1101 72.5663L28.0586 72.5359L25.7212 74.4672L27.397 75.4544V75.4528Z" fill="#2C8717"/>
<path d="M32.936 73.182L35.8436 74.0763C37.5176 74.5908 38.1842 75.7992 37.7171 77.2112C37.3946 78.1825 36.698 78.745 35.7438 78.8332L36.3955 82.0771L34.6749 81.5482L34.113 78.5992L32.9759 78.2498L32.1414 80.7693L30.582 80.29L32.936 73.1836V73.182ZM34.4338 77.3667C35.3266 77.6408 35.8801 77.4212 36.1129 76.7176C36.3473 76.0092 36.0397 75.4899 35.1387 75.2142L34.0881 74.8905L33.3749 77.0413L34.4338 77.3667Z" fill="#2C8717"/>
<path d="M38.5 82.5204L41.7151 75.2617L43.8181 75.406L45.9293 83.0317L44.1805 82.9115L43.7333 81.1757L40.9471 80.9834L40.2489 82.6406L38.5 82.5204ZM43.4124 79.9176L42.671 77.0359L42.6111 77.0311L41.4524 79.783L43.4124 79.9176Z" fill="#2C8717"/>
<path d="M54.9506 81.7408L53.5592 81.9812L49.3899 77.9312L49.335 77.9408L50.1911 82.5614L48.5803 82.8387L47.2188 75.4966L48.6318 75.253L52.7745 79.3047L52.841 79.2935L51.9849 74.6761L53.5874 74.4004L54.949 81.7424L54.9506 81.7408Z" fill="#2C8717"/>
<path d="M54.4531 74.1368L60.2682 71.6654L60.8118 72.8546L58.6441 73.7762L61.2225 79.4129L59.7429 80.0412L57.1645 74.4044L54.9967 75.326L54.4531 74.1368Z" fill="#2C8717"/>
<path d="M61.0742 71.1391L65.2751 68.1597L66.0748 69.2078L63.1921 71.2529L64.286 72.6857L66.9525 70.7945L67.7521 71.8427L65.0856 73.7339L66.1811 75.1683L69.0754 73.1153L69.875 74.1634L65.6625 77.1525L61.0759 71.1423L61.0742 71.1391Z" fill="#2C8717"/>
<path d="M66.2031 67.3434L69.6693 63.5898L70.6767 64.4537L68.2978 67.0293L69.6742 68.2105L71.8736 65.8288L72.881 66.6927L70.6817 69.0743L72.0615 70.2587L74.4503 67.672L75.4578 68.5358L71.9817 72.299L66.2048 67.3402L66.2031 67.3434Z" fill="#2C8717"/>
<path d="M77.1955 66.2624L70.4062 62.6867L71.7312 60.3468C72.85 58.3722 74.8083 57.8337 76.9229 58.9476C79.0441 60.0647 79.6393 61.9479 78.5088 63.9416L77.1939 66.2624H77.1955ZM77.2471 63.3518C77.9436 62.121 77.656 61.1273 76.1399 60.3291C74.6321 59.5342 73.6147 59.8419 72.9182 61.068L72.4178 61.9495L76.7483 64.2301L77.2471 63.3502V63.3518Z" fill="#2C8717"/>
<circle opacity="0.3" cx="45" cy="45" r="44.6121" stroke="#2C8717" stroke-width="0.775862"/>
<g clip-path="url(#clip0_1146_80953)">
<path d="M14.6368 46.0091L15.8308 48.1423L13.4331 47.6659L11.7733 49.4607L11.4855 47.0331L9.26562 46.0091L11.4855 44.9852L11.7733 42.5576L13.4331 44.3524L15.8308 43.876L14.6368 46.0091Z" fill="#2C8717"/>
</g>
<g clip-path="url(#clip1_1146_80953)">
<path d="M76.9711 47.8372L74.6016 48.4385L75.6824 46.2457L74.3783 44.178L76.7977 44.5283L78.3613 42.6491L78.7758 45.0583L81.0462 45.9646L78.883 47.1033L78.7226 49.5427L76.9711 47.8372Z" fill="#2C8717"/>
</g>
<path fill-rule="evenodd" clip-rule="evenodd" d="M45.0002 69.7492C58.6693 69.7492 69.7503 58.6682 69.7503 44.9991C69.7503 31.3299 58.6693 20.2489 45.0002 20.2489C31.331 20.2489 20.25 31.3299 20.25 44.9991C20.25 58.6682 31.331 69.7492 45.0002 69.7492ZM54.2825 37.5759L42.2168 49.8782L35.7199 43.2539L33.8636 45.1466L42.2168 53.6635L56.1388 39.4685L54.2825 37.5759Z" fill="#2C8717"/>
<defs>
<clipPath id="clip0_1146_80953">
<rect width="7.25833" height="7.25833" fill="white" transform="translate(9.11328 49.6379) rotate(-90)"/>
</clipPath>
<clipPath id="clip1_1146_80953">
<rect width="7.25833" height="7.25833" fill="white" transform="translate(74.8945 41.563) rotate(15)"/>
</clipPath>
</defs>
</svg>
