<svg width="79" height="80" viewBox="0 0 79 80" fill="none" xmlns="http://www.w3.org/2000/svg">
<path fill-rule="evenodd" clip-rule="evenodd" d="M49.0295 44.4885H70.7921C72.0844 44.4896 73.323 45.0034 74.237 45.9169C75.151 46.8309 75.6654 48.0695 75.6675 49.3618V71.1243C75.6653 72.4167 75.1509 73.6558 74.2375 74.5698C73.3235 75.4833 72.0844 75.9976 70.7921 75.9998H49.0295C47.7372 75.9976 46.4986 75.4832 45.5846 74.5692C44.6712 73.6552 44.1573 72.4167 44.1562 71.1243V49.3618C44.1573 48.0695 44.6712 46.8309 45.5851 45.9174C46.4986 45.0034 47.7372 44.4896 49.0295 44.4885ZM62.7815 51.9279V48.0594H57.0867L57.0873 51.9279H62.7815ZM70.7921 72.4297C71.5121 72.4281 72.095 71.8452 72.0966 71.1252L72.0973 49.3625C72.0957 48.6425 71.5123 48.0601 70.7928 48.0601H66.3531V52.2665C66.3515 53.1221 66.011 53.9426 65.4056 54.5473C64.8003 55.152 63.9804 55.4915 63.1249 55.4926H56.7398C55.8854 55.4905 55.0659 55.1499 54.4618 54.5451C53.8576 53.941 53.5186 53.1216 53.517 52.2666V48.0602H49.0295C48.6841 48.0602 48.3526 48.1973 48.1086 48.4417C47.8642 48.6856 47.7271 49.0172 47.7271 49.3626V71.1252C47.7271 71.8446 48.3095 72.4281 49.0295 72.4297H70.7921ZM63.2974 65.0179H68.0798C69.0661 65.0179 69.8653 65.8171 69.8653 66.8034C69.8653 67.7891 69.0661 68.5888 68.0798 68.5888H63.2974C62.3112 68.5888 61.512 67.7891 61.512 66.8034C61.512 65.8171 62.3112 65.0179 63.2974 65.0179Z" fill="black"/>
<path opacity="0.5" d="M2.81392 46.2555C5.0848 53.0875 9.41315 59.0237 15.1878 63.2242C20.963 67.4251 27.8926 69.6794 34.9985 69.6692C35.8933 69.6692 36.6185 68.9329 36.6185 68.0254C36.6185 67.1174 35.8933 66.3816 34.9985 66.3816C33.9377 66.3816 32.8925 66.3073 31.8558 66.2021V66.2016C27.4095 60.7791 24.4982 54.2335 23.4317 47.2641H34.9985C35.8933 47.2641 36.6185 46.5279 36.6185 45.6204C36.6185 44.7124 35.8933 43.9766 34.9985 43.9766H22.9129C22.1246 38.1286 22.1328 32.1987 22.937 26.3529H47.043H47.0425C47.4369 29.2354 47.6404 32.1414 47.652 35.0517C47.652 35.9597 48.3771 36.6954 49.272 36.6954C50.1669 36.6954 50.892 35.9597 50.892 35.0517C50.8775 32.1424 50.6808 29.2368 50.3023 26.3529H64.5006C65.3342 29.2153 65.7585 32.1848 65.7599 35.17C65.7599 36.078 66.4851 36.8138 67.38 36.8138C68.2744 36.8138 69 36.078 69 35.17C69.0024 26.7526 65.9692 18.6247 60.4727 12.3201C54.9757 6.01555 47.3952 1.9702 39.1611 0.946365C37.7822 0.752143 36.3912 0.659679 34.9987 0.669961C27.8787 0.661645 20.9362 2.92527 15.1547 7.14133C9.37273 11.3569 5.04452 17.3111 2.78203 24.1601C0.40599 31.288 0.40599 39.011 2.78203 46.1384C2.79071 46.178 2.81433 46.2152 2.81433 46.2548L2.81392 46.2555ZM27.0063 65.3007C22.4789 64.0737 18.289 61.8101 14.7592 58.683C11.2288 55.5559 8.45261 51.6491 6.64361 47.2632H20.1593C21.1968 53.691 23.5324 59.8322 27.0198 65.3002L27.0063 65.3007ZM19.6622 43.9762H5.51829C3.81199 38.2293 3.81199 32.0995 5.51829 26.3525H19.677C18.9017 32.2 18.8969 38.127 19.6621 43.9762H19.6622ZM63.3345 23.065H49.8336C48.8172 16.6474 46.486 10.5172 42.9905 5.07056C47.5063 6.30142 51.6856 8.56211 55.2091 11.6803C58.7332 14.799 61.5089 18.6922 63.3252 23.0643L63.3345 23.065ZM38.1311 4.14254C42.5539 9.57091 45.455 16.1073 46.5292 23.065H23.4773C24.5602 16.0726 27.5192 9.51781 32.0287 4.11749C33.0094 4.02111 33.9988 3.95752 34.9987 3.95752C36.0455 3.95605 37.0912 4.0172 38.1308 4.14196L38.1311 4.14254ZM27.1646 4.99965V4.99916C23.6227 10.4612 21.2476 16.6156 20.1922 23.0649H6.65435C8.47643 18.658 11.2744 14.736 14.8311 11.603C18.3879 8.47005 22.6078 6.21035 27.1641 4.99866L27.1646 4.99965Z" fill="#5A6473" stroke="white"/>
</svg>
